<mxfile host="app.diagrams.net" modified="2021-07-02T09:19:30.608Z" agent="5.0 (Macintosh; Intel Mac OS X 10_14_6) AppleWebKit/537.36 (KHTML, like Gecko) Chrome/91.0.4472.114 Safari/537.36" etag="buM_pakTY9wLdxQ4X5lp" version="14.8.3" type="github">
  <diagram id="H-swwTQlOl0YLQnA3Wwz" name="Page-1">
    <mxGraphModel dx="2066" dy="1005" grid="1" gridSize="10" guides="1" tooltips="1" connect="1" arrows="1" fold="1" page="1" pageScale="1" pageWidth="827" pageHeight="1169" math="0" shadow="0">
      <root>
        <mxCell id="0" />
        <mxCell id="1" parent="0" />
      </root>
    </mxGraphModel>
  </diagram>
</mxfile>
